<svg xmlns="http://www.w3.org/2000/svg" xmlns:xlink="http://www.w3.org/1999/xlink" version="1.1" preserveAspectRatio="none" x="0px" y="0px" viewBox="0 0 100 125"><defs><g id="c"><path fill="#284245" stroke="none" d=" M 88.15 35.85 Q 88.2 35.3 87.95 34.8 87.7 34.25 87.2 33.95 86.7 33.65 86.15 33.65 L 6.6 33.65 Q 6.05 33.65 5.55 33.95 5.05 34.25 4.8 34.8 4.55 35.3 4.6 35.85 L 12.95 115.85 Q 12.95 115.95 13 116.1 13.25 117.25 14 118.2 14.05 118.25 14.15 118.35 15.2 119.4 16.75 119.4 L 75.85 119.4 Q 77.4 119.4 78.5 118.35 79.6 117.2 79.65 115.8 L 88.15 35.85 M 77.35 99.45 L 15.3 99.45 10.35 52.2 82.4 52.2 77.35 99.45 Z"/></g><g id="b"><path fill="#284245" stroke="none" d=" M 57.65 78.1 L 60.4 82.95 Q 60.9 83.75 60.9 84.65 60.9 85.55 60.4 86.35 59.95 87.2 59.15 87.65 58.35 88.1 57.4 88.1 L 49.9 88.1 Q 49.8 88.1 49.75 88.05 49.7 88 49.7 87.9 L 49.7 86 Q 49.7 85.9 49.6 85.85 49.5 85.8 49.4 85.85 L 43.5 89.55 Q 43.4 89.65 43.4 89.75 43.4 89.85 43.5 89.9 L 49.45 93.6 Q 49.55 93.7 49.65 93.65 49.7 93.55 49.7 93.45 L 49.7 91.55 Q 49.7 91.45 49.8 91.4 49.85 91.35 49.9 91.35 L 57.5 91.35 Q 59.3 91.35 60.85 90.45 62.4 89.55 63.3 87.95 64.2 86.35 64.2 84.65 64.2 82.9 63.25 81.35 L 60.5 76.5 Q 60.45 76.45 60.4 76.45 60.3 76.4 60.25 76.45 L 57.75 77.9 Q 57.65 77.9 57.65 78 57.6 78.05 57.65 78.1 M 31 73.35 Q 31 73.45 31.1 73.5 L 32.8 74.5 Q 32.85 74.5 32.9 74.6 32.9 74.65 32.85 74.7 L 29.05 81.3 Q 28.15 82.85 28.15 84.65 28.15 86.4 29.05 87.95 29.95 89.55 31.5 90.45 33.05 91.35 34.85 91.35 L 40.45 91.35 Q 40.5 91.35 40.55 91.3 40.6 91.25 40.6 91.15 L 40.6 88.3 Q 40.6 88.25 40.55 88.2 40.5 88.15 40.45 88.15 L 34.85 88.15 Q 33.95 88.15 33.15 87.65 32.35 87.2 31.85 86.4 31.4 85.6 31.4 84.7 31.4 83.8 31.85 82.95 L 35.65 76.4 Q 35.7 76.35 35.8 76.3 35.85 76.3 35.9 76.3 L 37.6 77.3 Q 37.7 77.35 37.8 77.3 37.85 77.25 37.85 77.1 L 37.6 70.1 Q 37.6 70 37.5 69.95 37.4 69.9 37.3 69.95 L 31.1 73.2 Q 31 73.25 31 73.35 M 37.55 66.5 Q 37.5 66.6 37.55 66.65 37.55 66.75 37.65 66.75 L 40.15 68.2 Q 40.2 68.25 40.3 68.2 40.35 68.2 40.4 68.1 L 43.15 63.3 Q 43.65 62.5 44.4 62.05 45.2 61.6 46.15 61.6 47.1 61.6 47.9 62.05 48.7 62.5 49.15 63.3 L 52.95 69.9 Q 53 69.95 53 70 52.95 70.1 52.9 70.1 L 51.2 71.1 Q 51.1 71.15 51.1 71.25 51.1 71.35 51.2 71.4 L 57.4 74.65 Q 57.5 74.7 57.6 74.65 57.7 74.6 57.7 74.5 L 57.95 67.45 Q 57.95 67.35 57.9 67.3 57.8 67.25 57.7 67.3 L 56 68.3 Q 55.95 68.3 55.85 68.3 55.8 68.3 55.75 68.2 L 51.95 61.65 Q 51.05 60.05 49.55 59.15 48 58.25 46.15 58.25 44.35 58.25 42.75 59.2 41.2 60.1 40.3 61.7 L 37.55 66.5 Z"/></g><g id="a"><path fill="#284245" stroke="none" d=" M 85.5 1.35 Q 85.1 0.05 83.75 0.05 L 46.15 0 45.9 0 9.65 0.05 Q 8.3 0.05 7.9 1.35 L 5.3 10.35 Q 5.25 10.55 5.25 10.75 L 4.1 10.75 Q 0 10.75 0 14.85 L 0 26.6 Q 0 30.75 4.1 30.75 L 89.6 30.75 Q 93.75 30.75 93.75 26.6 L 93.75 14.85 Q 93.75 10.75 89.6 10.75 L 88.2 10.75 Q 88.15 10.55 88.1 10.35 L 85.5 1.35 M 78.45 11.6 Q 79.25 11.6 79.85 12.2 80.45 12.8 80.45 13.6 80.45 14.4 79.85 15 79.25 15.6 78.45 15.6 L 13.95 15.6 Q 13.15 15.6 12.55 15 11.95 14.4 11.95 13.6 11.95 12.8 12.55 12.2 13.15 11.6 13.95 11.6 L 78.45 11.6 Z"/></g></defs><g transform="matrix( 0.66998291015625, 0, 0, 0.66998291015625, 18.6,10) "><g transform="matrix( 1, 0, 0, 1, 0,0) "><use xlink:href="#c"/></g><g transform="matrix( 1, 0, 0, 1, 0,0) "><use xlink:href="#b"/></g><g transform="matrix( 1, 0, 0, 1, 0,0) "><use xlink:href="#a"/></g></g></svg>