{
  "accessors": [
    {
      "bufferView": 2,
      "componentType": 5126,
      "count": 1594,
      "max": [
        1.2805256843566895,
        2.200777530670166,
        4.6009082794189453
      ],
      "min": [
        -1.2805256843566895,
        -5.5842905044555664,
        -4.7107114791870117
      ],
      "type": "VEC3"
    },
    {
      "bufferView": 2,
      "byteOffset": 19128,
      "componentType": 5126,
      "count": 1594,
      "max": [
        0.99971467256546021,
        0.99879056215286255,
        0.99578475952148438
      ],
      "min": [
        -0.99971467256546021,
        -1,
        -0.99725264310836792
      ],
      "type": "VEC3"
    },
    {
      "bufferView": 1,
      "componentType": 5126,
      "count": 1594,
      "max": [
        0.69365429878234863,
        0.73309028148651123
      ],
      "min": [
        0.088619127869606018,
        0.28163447976112366
      ],
      "type": "VEC2"
    },
    {
      "bufferView": 0,
      "componentType": 5125,
      "count": 2334,
      "max": [
        1593
      ],
      "min": [
        0
      ],
      "type": "SCALAR"
    },
    {
      "bufferView": 2,
      "byteOffset": 38256,
      "componentType": 5126,
      "count": 176,
      "max": [
        0.9999997615814209,
        1,
        0.9999995231628418
      ],
      "min": [
        -0.99999964237213135,
        -1,
        -0.99999982118606567
      ],
      "type": "VEC3"
    },
    {
      "bufferView": 2,
      "byteOffset": 40368,
      "componentType": 5126,
      "count": 176,
      "max": [
        0.89680886268615723,
        0.96042239665985107,
        0.896808922290802
      ],
      "min": [
        -0.896808922290802,
        -0.96042245626449585,
        -0.89680898189544678
      ],
      "type": "VEC3"
    },
    {
      "bufferView": 1,
      "byteOffset": 12752,
      "componentType": 5126,
      "count": 176,
      "max": [
        0.44886255264282227,
        0.4094511866569519
      ],
      "min": [
        0.40649008750915527,
        0.36707872152328491
      ],
      "type": "VEC2"
    },
    {
      "bufferView": 0,
      "byteOffset": 9336,
      "componentType": 5125,
      "count": 240,
      "max": [
        175
      ],
      "min": [
        0
      ],
      "type": "SCALAR"
    },
    {
      "bufferView": 2,
      "byteOffset": 42480,
      "componentType": 5126,
      "count": 36,
      "max": [
        0.86602544784545898,
        1,
        1
      ],
      "min": [
        -0.86602544784545898,
        -1,
        -1
      ],
      "type": "VEC3"
    },
    {
      "bufferView": 2,
      "byteOffset": 42912,
      "componentType": 5126,
      "count": 36,
      "max": [
        1,
        1,
        0.86602544784545898
      ],
      "min": [
        -1,
        -1,
        -0.86602544784545898
      ],
      "type": "VEC3"
    },
    {
      "bufferView": 1,
      "byteOffset": 14160,
      "componentType": 5126,
      "count": 36,
      "max": [
        0.079806730151176453,
        0.13427439332008362
      ],
      "min": [
        0.052083328366279602,
        0.1068282425403595
      ],
      "type": "VEC2"
    },
    {
      "bufferView": 0,
      "byteOffset": 10296,
      "componentType": 5125,
      "count": 60,
      "max": [
        35
      ],
      "min": [
        0
      ],
      "type": "SCALAR"
    },
    {
      "bufferView": 2,
      "byteOffset": 43344,
      "componentType": 5126,
      "count": 176,
      "max": [
        0.9999997615814209,
        1,
        0.9999995231628418
      ],
      "min": [
        -0.99999964237213135,
        -1,
        -0.99999982118606567
      ],
      "type": "VEC3"
    },
    {
      "bufferView": 2,
      "byteOffset": 45456,
      "componentType": 5126,
      "count": 176,
      "max": [
        0.89680886268615723,
        0.96042239665985107,
        0.896808922290802
      ],
      "min": [
        -0.896808922290802,
        -0.96042245626449585,
        -0.89680898189544678
      ],
      "type": "VEC3"
    },
    {
      "bufferView": 1,
      "byteOffset": 14448,
      "componentType": 5126,
      "count": 176,
      "max": [
        0.44886255264282227,
        0.4094511866569519
      ],
      "min": [
        0.40649008750915527,
        0.36707872152328491
      ],
      "type": "VEC2"
    },
    {
      "bufferView": 0,
      "byteOffset": 10536,
      "componentType": 5125,
      "count": 240,
      "max": [
        175
      ],
      "min": [
        0
      ],
      "type": "SCALAR"
    },
    {
      "bufferView": 2,
      "byteOffset": 47568,
      "componentType": 5126,
      "count": 36,
      "max": [
        0.86602544784545898,
        1,
        1
      ],
      "min": [
        -0.86602544784545898,
        -1,
        -1
      ],
      "type": "VEC3"
    },
    {
      "bufferView": 2,
      "byteOffset": 48000,
      "componentType": 5126,
      "count": 36,
      "max": [
        1,
        1,
        0.86602544784545898
      ],
      "min": [
        -1,
        -1,
        -0.86602544784545898
      ],
      "type": "VEC3"
    },
    {
      "bufferView": 1,
      "byteOffset": 15856,
      "componentType": 5126,
      "count": 36,
      "max": [
        0.079806730151176453,
        0.13427439332008362
      ],
      "min": [
        0.052083328366279602,
        0.1068282425403595
      ],
      "type": "VEC2"
    },
    {
      "bufferView": 0,
      "byteOffset": 11496,
      "componentType": 5125,
      "count": 60,
      "max": [
        35
      ],
      "min": [
        0
      ],
      "type": "SCALAR"
    },
    {
      "bufferView": 2,
      "byteOffset": 48432,
      "componentType": 5126,
      "count": 112,
      "max": [
        3.2323131561279297,
        49.948341369628906,
        19.984790802001953
      ],
      "min": [
        -3.2323131561279297,
        45.738197326660156,
        5.0109310150146484
      ],
      "type": "VEC3"
    },
    {
      "bufferView": 2,
      "byteOffset": 49776,
      "componentType": 5126,
      "count": 112,
      "max": [
        0.99894940853118896,
        0.89113432168960571,
        0.24101412296295166
      ],
      "min": [
        -0.99894940853118896,
        -0.88467258214950562,
        -0.29649984836578369
      ],
      "type": "VEC3"
    },
    {
      "bufferView": 1,
      "byteOffset": 16144,
      "componentType": 5126,
      "count": 112,
      "max": [
        0.088281333446502686,
        0.14765632152557373
      ],
      "min": [
        0.013281315565109253,
        0.04765629768371582
      ],
      "type": "VEC2"
    },
    {
      "bufferView": 0,
      "byteOffset": 11736,
      "componentType": 5125,
      "count": 168,
      "max": [
        111
      ],
      "min": [
        0
      ],
      "type": "SCALAR"
    },
    {
      "bufferView": 2,
      "byteOffset": 51120,
      "componentType": 5126,
      "count": 48,
      "max": [
        7.3958468437194824,
        1.1637001037597656,
        1.8231959342956543
      ],
      "min": [
        -1.1493644714355469,
        -0.28719741106033325,
        -11.700218200683594
      ],
      "type": "VEC3"
    },
    {
      "bufferView": 2,
      "byteOffset": 51696,
      "componentType": 5126,
      "count": 48,
      "max": [
        0.80647176504135132,
        0.99833101034164429,
        0.23182396590709686
      ],
      "min": [
        -0.2316758930683136,
        -0.99822103977203369,
        -0.17832380533218384
      ],
      "type": "VEC3"
    },
    {
      "bufferView": 1,
      "byteOffset": 17040,
      "componentType": 5126,
      "count": 48,
      "max": [
        0.093445174396038055,
        0.19769233465194702
      ],
      "min": [
        0.035012237727642059,
        0.08082648366689682
      ],
      "type": "VEC2"
    },
    {
      "bufferView": 0,
      "byteOffset": 12408,
      "componentType": 5125,
      "count": 66,
      "max": [
        47
      ],
      "min": [
        0
      ],
      "type": "SCALAR"
    },
    {
      "bufferView": 2,
      "byteOffset": 52272,
      "componentType": 5126,
      "count": 64,
      "max": [
        4.6594295501708984,
        1.1931617259979248,
        0.46646910905838013
      ],
      "min": [
        -1.6966352462768555,
        -1.006170392036438,
        -13.413840293884277
      ],
      "type": "VEC3"
    },
    {
      "bufferView": 2,
      "byteOffset": 53040,
      "componentType": 5126,
      "count": 64,
      "max": [
        0.33275792002677917,
        0.99833101034164429,
        0.26684588193893433
      ],
      "min": [
        -0.85466009378433228,
        -0.99557197093963623,
        -0.23815180361270905
      ],
      "type": "VEC3"
    },
    {
      "bufferView": 1,
      "byteOffset": 17424,
      "componentType": 5126,
      "count": 64,
      "max": [
        0.092954099178314209,
        0.1430191844701767
      ],
      "min": [
        0.072954118251800537,
        0.10301919281482697
      ],
      "type": "VEC2"
    },
    {
      "bufferView": 0,
      "byteOffset": 12672,
      "componentType": 5125,
      "count": 90,
      "max": [
        63
      ],
      "min": [
        0
      ],
      "type": "SCALAR"
    },
    {
      "bufferView": 2,
      "byteOffset": 53808,
      "componentType": 5126,
      "count": 48,
      "max": [
        1.47796630859375,
        1.3180228471755981,
        0.99999982118606567
      ],
      "min": [
        -2.3896501064300537,
        -1.7454015016555786,
        -5.1216607093811035
      ],
      "type": "VEC3"
    },
    {
      "bufferView": 2,
      "byteOffset": 54384,
      "componentType": 5126,
      "count": 48,
      "max": [
        0.99770945310592651,
        0.99833101034164429,
        0.9972388744354248
      ],
      "min": [
        -0.99770945310592651,
        -0.97445213794708252,
        -0.9972388744354248
      ],
      "type": "VEC3"
    },
    {
      "bufferView": 1,
      "byteOffset": 17936,
      "componentType": 5126,
      "count": 48,
      "max": [
        0.082840621471405029,
        0.14728169143199921
      ],
      "min": [
        0.050574958324432373,
        0.082750365138053894
      ],
      "type": "VEC2"
    },
    {
      "bufferView": 0,
      "byteOffset": 13032,
      "componentType": 5125,
      "count": 66,
      "max": [
        47
      ],
      "min": [
        0
      ],
      "type": "SCALAR"
    },
    {
      "bufferView": 2,
      "byteOffset": 54960,
      "componentType": 5126,
      "count": 4,
      "max": [
        1,
        0,
        1
      ],
      "min": [
        -1,
        0,
        -1
      ],
      "type": "VEC3"
    },
    {
      "bufferView": 2,
      "byteOffset": 55008,
      "componentType": 5126,
      "count": 4,
      "max": [
        0,
        1,
        -0
      ],
      "min": [
        0,
        1,
        -0
      ],
      "type": "VEC3"
    },
    {
      "bufferView": 1,
      "byteOffset": 18320,
      "componentType": 5126,
      "count": 4,
      "max": [
        0.32852798700332642,
        0.34889641404151917
      ],
      "min": [
        0.32852798700332642,
        0.34889641404151917
      ],
      "type": "VEC2"
    },
    {
      "bufferView": 0,
      "byteOffset": 13296,
      "componentType": 5125,
      "count": 6,
      "max": [
        3
      ],
      "min": [
        0
      ],
      "type": "SCALAR"
    }
  ],
  "asset": {
    "extras": {
      "author": "micaelsampaio (https://sketchfab.com/micaelsampaio)",
      "license": "CC-BY-4.0 (http://creativecommons.org/licenses/by/4.0/)",
      "source": "https://sketchfab.com/3d-models/seagull-low-poly-a9f5426fa3a949beb18289131c8f1dda",
      "title": "Seagull Low Poly"
    },
    "generator": "Sketchfab-9.94.0",
    "version": "2.0"
  },
  "bufferViews": [
    {
      "buffer": 0,
      "byteLength": 13320,
      "byteOffset": 0,
      "name": "floatBufferViews",
      "target": 34963
    },
    {
      "buffer": 0,
      "byteLength": 18352,
      "byteOffset": 13320,
      "byteStride": 8,
      "name": "floatBufferViews",
      "target": 34962
    },
    {
      "buffer": 0,
      "byteLength": 55056,
      "byteOffset": 31672,
      "byteStride": 12,
      "name": "floatBufferViews",
      "target": 34962
    }
  ],
  "buffers": [
    {
      "byteLength": 86728,
      "uri": "scene.bin"
    }
  ],
  "extensionsUsed": [
    "KHR_materials_unlit"
  ],
  "images": [
    {
      "uri": "textures/FRANGO_baseColor.png"
    }
  ],
  "materials": [
    {
      "doubleSided": true,
      "emissiveFactor": [
        0,
        0,
        0
      ],
      "extensions": {
        "KHR_materials_unlit": {}
      },
      "name": "FRANGO",
      "pbrMetallicRoughness": {
        "baseColorFactor": [
          1,
          1,
          1,
          1
        ],
        "baseColorTexture": {
          "index": 0,
          "texCoord": 0
        },
        "metallicFactor": 0,
        "roughnessFactor": 1
      }
    }
  ],
  "meshes": [
    {
      "primitives": [
        {
          "attributes": {
            "NORMAL": 1,
            "POSITION": 0,
            "TEXCOORD_0": 2
          },
          "indices": 3,
          "material": 0,
          "mode": 4
        }
      ]
    },
    {
      "primitives": [
        {
          "attributes": {
            "NORMAL": 5,
            "POSITION": 4,
            "TEXCOORD_0": 6
          },
          "indices": 7,
          "material": 0,
          "mode": 4
        }
      ]
    },
    {
      "primitives": [
        {
          "attributes": {
            "NORMAL": 9,
            "POSITION": 8,
            "TEXCOORD_0": 10
          },
          "indices": 11,
          "material": 0,
          "mode": 4
        }
      ]
    },
    {
      "primitives": [
        {
          "attributes": {
            "NORMAL": 13,
            "POSITION": 12,
            "TEXCOORD_0": 14
          },
          "indices": 15,
          "material": 0,
          "mode": 4
        }
      ]
    },
    {
      "primitives": [
        {
          "attributes": {
            "NORMAL": 17,
            "POSITION": 16,
            "TEXCOORD_0": 18
          },
          "indices": 19,
          "material": 0,
          "mode": 4
        }
      ]
    },
    {
      "primitives": [
        {
          "attributes": {
            "NORMAL": 21,
            "POSITION": 20,
            "TEXCOORD_0": 22
          },
          "indices": 23,
          "material": 0,
          "mode": 4
        }
      ]
    },
    {
      "primitives": [
        {
          "attributes": {
            "NORMAL": 25,
            "POSITION": 24,
            "TEXCOORD_0": 26
          },
          "indices": 27,
          "material": 0,
          "mode": 4
        }
      ]
    },
    {
      "primitives": [
        {
          "attributes": {
            "NORMAL": 29,
            "POSITION": 28,
            "TEXCOORD_0": 30
          },
          "indices": 31,
          "material": 0,
          "mode": 4
        }
      ]
    },
    {
      "primitives": [
        {
          "attributes": {
            "NORMAL": 33,
            "POSITION": 32,
            "TEXCOORD_0": 34
          },
          "indices": 35,
          "material": 0,
          "mode": 4
        }
      ]
    },
    {
      "primitives": [
        {
          "attributes": {
            "NORMAL": 37,
            "POSITION": 36,
            "TEXCOORD_0": 38
          },
          "indices": 39,
          "material": 0,
          "mode": 4
        }
      ]
    }
  ],
  "nodes": [
    {
      "children": [
        1
      ],
      "name": "RootNode (gltf orientation matrix)",
      "rotation": [
        -0.70710678118654746,
        -0,
        -0,
        0.70710678118654757
      ]
    },
    {
      "children": [
        2
      ],
      "name": "RootNode (model correction matrix)"
    },
    {
      "children": [
        3
      ],
      "name": "root"
    },
    {
      "children": [
        4,
        6,
        10,
        14,
        16,
        18,
        20,
        22
      ],
      "matrix": [
        1,
        0,
        0,
        0,
        0,
        2.2204460492503131e-16,
        1,
        0,
        0,
        -1,
        2.2204460492503131e-16,
        0,
        0,
        0,
        0,
        1
      ],
      "name": "GLTF_SceneRootNode"
    },
    {
      "children": [
        5
      ],
      "matrix": [
        0.18338334560394287,
        0,
        0,
        0,
        0,
        0.18338334560394287,
        0,
        0,
        0,
        0,
        0.16876071691513062,
        0,
        0,
        0,
        0.042126975953578949,
        1
      ],
      "name": "Cylinder_2"
    },
    {
      "mesh": 0,
      "name": ""
    },
    {
      "children": [
        7,
        8
      ],
      "matrix": [
        -0.057770263403654099,
        -0,
        -0,
        -0,
        -0,
        -0.057770263403654099,
        -0,
        -0,
        -0,
        -0,
        -0.057770263403654099,
        -0,
        0.090067625045776367,
        0.25313383340835571,
        0.086811944842338562,
        1
      ],
      "name": "Sphere_4"
    },
    {
      "mesh": 1,
      "name": ""
    },
    {
      "children": [
        9
      ],
      "matrix": [
        -0.20106067970076894,
        4.5132946333600817e-09,
        0.085792635446632431,
        -0,
        -0.015328494960447603,
        1.6485243414616731e-10,
        -0.035923335371304085,
        -0,
        4.5132946333600817e-09,
        0.21859957277774805,
        -9.2266884789967151e-10,
        -0,
        -0.32815086841583252,
        0.026206016540527344,
        -0.92572462558746338,
        1
      ],
      "name": "Cylinder.001_3"
    },
    {
      "mesh": 2,
      "name": ""
    },
    {
      "children": [
        11,
        12
      ],
      "matrix": [
        0.057770263403654099,
        0,
        0,
        0,
        0,
        -0.057770263403654099,
        -0,
        -0,
        0,
        -0,
        -0.057770263403654099,
        -0,
        -0.092987440526485443,
        0.25313383340835571,
        0.086811944842338562,
        1
      ],
      "name": "Sphere.001_6"
    },
    {
      "mesh": 3,
      "name": ""
    },
    {
      "children": [
        13
      ],
      "matrix": [
        -0.20106067970076894,
        4.5132946333600817e-09,
        0.085792635446632431,
        -0,
        -0.015328494960447603,
        1.6485243414616731e-10,
        -0.035923335371304085,
        -0,
        4.5132946333600817e-09,
        0.21859957277774805,
        -9.2266884789967151e-10,
        -0,
        -0.32815074920654297,
        0.026206016540527344,
        -0.92572462558746338,
        1
      ],
      "name": "Cylinder.002_5"
    },
    {
      "mesh": 4,
      "name": ""
    },
    {
      "children": [
        15
      ],
      "matrix": [
        0.040519086874767497,
        0.00033013649883710061,
        -0.0012694345476982479,
        0,
        -5.6433565198469827e-05,
        0.0068494803895755236,
        -1.9987683735107669e-05,
        0,
        0.00021431429749823225,
        2.1744317660597829e-05,
        0.0068463539514473752,
        0,
        0,
        0,
        0,
        1
      ],
      "name": "Cube_7"
    },
    {
      "mesh": 5,
      "name": ""
    },
    {
      "children": [
        17
      ],
      "matrix": [
        -0.0082134958356618881,
        -0,
        0,
        -0,
        0,
        -0.072871334850788116,
        0,
        -0,
        0,
        -0,
        -0.0082134958356618881,
        -0,
        -0.0031798772979527712,
        0.47205555438995361,
        -0.024024859070777893,
        1
      ],
      "name": "Cube.001_8"
    },
    {
      "mesh": 6,
      "name": ""
    },
    {
      "children": [
        19
      ],
      "matrix": [
        -0.0079066722276572229,
        -0.0022207680037209087,
        0.00011932141668026858,
        -0,
        0.019063646468401405,
        -0.068686057978927295,
        -0.015133878074668462,
        -0,
        -0.00057367619284407346,
        0.0016108379571526498,
        -0.0080335303910544446,
        -0,
        0.0055412519723176956,
        0.47583821415901184,
        -0.034499082714319229,
        1
      ],
      "name": "Cube.002_9"
    },
    {
      "mesh": 7,
      "name": ""
    },
    {
      "children": [
        21
      ],
      "matrix": [
        0.0082134958356618881,
        0,
        0,
        0,
        0,
        -0.072871334850788116,
        0,
        -0,
        0,
        -0,
        -0.0082134958356618881,
        -0,
        -0.006794351153075695,
        0.48379567265510559,
        -0.070914342999458313,
        1
      ],
      "name": "Cube.003_10"
    },
    {
      "mesh": 8,
      "name": ""
    },
    {
      "children": [
        23
      ],
      "matrix": [
        20,
        0,
        0,
        0,
        0,
        0,
        10,
        0,
        0,
        -20,
        0,
        0,
        0,
        0,
        -6.1378822326660156,
        1
      ],
      "name": "Plane_12"
    },
    {
      "mesh": 9,
      "name": ""
    }
  ],
  "samplers": [
    {
      "magFilter": 9729,
      "minFilter": 9987,
      "wrapS": 10497,
      "wrapT": 10497
    }
  ],
  "scene": 0,
  "scenes": [
    {
      "name": "OSG_Scene",
      "nodes": [
        0
      ]
    }
  ],
  "textures": [
    {
      "sampler": 0,
      "source": 0
    }
  ]
}

